<?xml version="1.0" encoding="UTF-8" standalone="no"?>
<!DOCTYPE svg PUBLIC "-//W3C//DTD SVG 1.1//EN" "http://www.w3.org/Graphics/SVG/1.1/DTD/svg11.dtd">
<svg width="100%" height="100%" viewBox="0 0 1114 350" version="1.1" xmlns="http://www.w3.org/2000/svg" xmlns:xlink="http://www.w3.org/1999/xlink" xml:space="preserve" xmlns:serif="http://www.serif.com/" style="fill-rule:evenodd;clip-rule:evenodd;stroke-linejoin:round;stroke-miterlimit:2;">
    <g transform="matrix(1,0,0,1,-454.495,-973.358)">
        <g transform="matrix(0.866199,0,0,0.866199,74.8478,202.732)">
            <path d="M580.221,1168.22C587.075,1169.09 596.102,1167.59 602.124,1161.94C604.085,1160.1 606.966,1156.38 608.105,1153.66C609.721,1149.79 609.899,1147.59 609.899,1142.06L609.099,956.864C609.099,950.197 607.099,944.064 603.099,938.464C599.099,932.864 592.032,930.064 581.899,930.064L514.699,930.064C504.832,930.064 497.832,932.864 493.699,938.464C489.565,944.064 487.499,950.197 487.499,956.864L487.499,1140.06C487.499,1147 489.565,1153.26 493.699,1158.86C497.832,1164.46 504.832,1167.26 514.699,1167.26L580.221,1168.22ZM672.299,1204.06C674.965,1206.73 676.299,1210.06 676.299,1214.06C676.299,1216.2 675.765,1218.33 674.699,1220.46C673.632,1222.6 671.899,1224.73 669.499,1226.86C664.699,1231.93 660.432,1234.46 656.699,1234.46C653.765,1234.46 650.565,1232.73 647.099,1229.26L619.499,1201.66C609.099,1205.66 600.032,1207.66 592.299,1207.66L505.099,1207.66C498.165,1207.66 491.032,1206.26 483.699,1203.46C476.365,1200.66 469.232,1196.73 462.299,1191.66C447.899,1181 440.699,1164.86 440.699,1143.26L440.699,953.264C440.699,942.597 442.565,933.197 446.299,925.064C450.032,916.93 455.365,910.33 462.299,905.264L461.899,905.264C468.565,900.73 475.699,896.997 483.299,894.064C490.899,891.13 498.165,889.664 505.099,889.664L592.299,889.664C598.965,889.664 606.032,891.13 613.499,894.064C620.965,896.997 628.165,900.73 635.099,905.264L634.699,905.264C641.632,910.33 646.965,916.93 650.699,925.064C654.432,933.197 656.299,942.597 656.299,953.264L656.299,1143.26C656.299,1149.66 655.432,1155.8 653.699,1161.66C651.965,1167.53 649.632,1173 646.699,1178.06L672.299,1204.06Z" style="fill:rgb(110,166,248);fill-rule:nonzero;"/>
            <path d="M909.899,1143.66C909.899,1154.33 908.032,1163.8 904.299,1172.06C900.565,1180.33 895.232,1187 888.299,1192.06L888.699,1192.06C882.032,1196.6 874.965,1200.26 867.499,1203.06C860.032,1205.86 852.832,1207.26 845.899,1207.26L781.499,1207.26C774.832,1207.26 767.699,1205.86 760.099,1203.06C752.499,1200.26 745.365,1196.6 738.699,1192.06L739.099,1192.06C732.165,1187 726.832,1180.33 723.099,1172.06C719.365,1163.8 717.499,1154.33 717.499,1143.66L717.499,983.264C717.499,970.464 724.832,964.064 739.499,964.064C754.165,964.064 761.499,970.464 761.499,983.264L761.499,1140.46C761.499,1147.93 763.365,1154.46 767.099,1160.06C770.565,1166.46 777.765,1169.66 788.699,1169.66L838.699,1169.66C849.365,1169.66 856.432,1166.46 859.899,1160.06L859.499,1160.46C863.765,1154.06 865.899,1147.4 865.899,1140.46L865.899,983.264C865.899,970.464 873.232,964.064 887.899,964.064C902.565,964.064 909.899,970.464 909.899,983.264L909.899,1143.66Z" style="fill:rgb(110,166,248);fill-rule:nonzero;"/>
            <g>
                <path d="M1005.1,1190.46C1005.1,1203.26 997.765,1209.66 983.099,1209.66C968.165,1209.66 960.699,1203.26 960.699,1190.46L960.699,984.064C960.699,971.264 968.165,964.864 983.099,964.864C997.765,964.864 1005.1,971.264 1005.1,984.064L1005.1,1190.46Z" style="fill:rgb(110,166,248);fill-rule:nonzero;"/>
            </g>
            <path d="M1057.9,1004.06C1048.3,1004.06 1043.23,997.797 1042.7,985.264C1042.7,972.73 1047.77,966.464 1057.9,966.464L1196.7,966.464C1205.23,966.464 1211.96,967.864 1216.9,970.664C1221.83,973.464 1224.57,977.264 1225.1,982.064C1225.37,986.33 1225.3,990.597 1224.9,994.864C1224.5,999.13 1223.5,1002.33 1221.9,1004.46L1099.1,1169.66L1212.3,1169.66C1221.9,1169.66 1226.7,1175.93 1226.7,1188.46C1227.23,1194.86 1226.16,1199.6 1223.5,1202.66C1220.83,1205.73 1217.1,1207.26 1212.3,1207.26L1068.7,1207.26C1051.37,1207.26 1042.03,1202.2 1040.7,1192.06C1039.9,1182.73 1040.83,1175.13 1043.5,1169.26L1166.7,1004.06L1057.9,1004.06Z" style="fill:rgb(110,166,248);fill-rule:nonzero;"/>
        </g>
        <g transform="matrix(0.670067,0,0,0.690356,-78.0708,560.6)">
            <path d="M1013.5,914.464C1013.5,922.997 1010.57,930.197 1004.7,936.064C998.832,941.93 991.632,944.864 983.099,944.864C974.565,944.864 967.299,941.93 961.299,936.064C955.299,930.197 952.299,922.997 952.299,914.464C952.299,905.664 955.299,898.33 961.299,892.464C967.299,886.597 974.565,883.664 983.099,883.664C991.632,883.664 998.832,886.597 1004.7,892.464C1010.57,898.33 1013.5,905.664 1013.5,914.464Z" style="fill:rgb(255,0,0);fill-opacity:0.75;fill-rule:nonzero;"/>
        </g>
        <g transform="matrix(0.866199,0,0,0.866199,75.0598,214.417)">
            <path d="M1013.5,914.464C1013.5,922.997 1010.57,930.197 1004.7,936.064C998.832,941.93 991.632,944.864 983.099,944.864C974.565,944.864 967.299,941.93 961.299,936.064C955.299,930.197 952.299,922.997 952.299,914.464C952.299,905.664 955.299,898.33 961.299,892.464C967.299,886.597 974.565,883.664 983.099,883.664C991.632,883.664 998.832,886.597 1004.7,892.464C1010.57,898.33 1013.5,905.664 1013.5,914.464Z" style="fill:rgb(255,0,0);fill-opacity:0.75;fill-rule:nonzero;"/>
        </g>
        <g transform="matrix(0.866199,0,0,0.866199,811.116,202.732)">
            <rect x="410.604" y="1221.12" width="82.775" height="14.373" style="fill:rgb(119,119,119);fill-rule:nonzero;"/>
            <path d="M632.435,1075.48L632.262,1075.65C632.954,1073.11 634.311,1071.27 636.331,1070.11C638.352,1068.96 641.036,1068.67 644.384,1069.25C647.732,1069.82 650.127,1070.86 651.57,1072.36C653.013,1073.87 653.331,1075.94 652.523,1078.6L621.352,1202.76L621.352,1202.59C620.775,1204.55 619.476,1206.05 617.456,1207.09C615.435,1208.13 613.328,1208.65 611.135,1208.65C608.595,1208.65 606.2,1208.27 603.948,1207.52C601.697,1206.77 600.283,1205.24 599.706,1202.93L599.879,1203.11L578.579,1118.6L573.903,1118.6L552.777,1202.93C552.199,1204.9 550.756,1206.34 548.447,1207.26C546.138,1208.19 543.772,1208.65 541.347,1208.65C538.346,1208.65 535.95,1208.22 534.161,1207.35C532.371,1206.48 531.188,1204.95 530.611,1202.76L530.784,1202.93L499.613,1078.6C499.036,1076.29 499.556,1074.3 501.172,1072.62C502.788,1070.95 505.097,1069.82 508.099,1069.25C514.564,1068.21 518.489,1070.34 519.874,1075.65L519.701,1075.48L527.494,1106.83C528.533,1110.98 529.572,1115.22 530.611,1119.55C531.65,1123.88 532.804,1128.5 534.074,1133.41C535.344,1138.31 536.729,1143.65 538.23,1149.42C539.731,1155.2 541.405,1161.66 543.252,1168.82L565.418,1075.31C565.995,1072.77 567.323,1071.09 569.401,1070.29C571.479,1069.48 573.788,1069.07 576.328,1069.07C578.637,1069.07 580.888,1069.51 583.081,1070.37C585.275,1071.24 586.66,1073 587.237,1075.65L610.096,1168.3L632.435,1075.48Z" style="fill:rgb(119,119,119);fill-rule:nonzero;"/>
            <path d="M685.771,1179.56C685.771,1182.33 686.666,1184.92 688.456,1187.35C690.245,1189.77 693.275,1190.99 697.547,1190.99L719.193,1190.99C723.465,1190.99 726.495,1189.92 728.285,1187.78C730.074,1185.65 730.969,1183.19 730.969,1180.42L730.969,1178.52C730.969,1173.09 734.144,1170.38 740.493,1170.38C746.843,1170.38 750.018,1173.09 750.018,1178.52L750.018,1180.6C750.018,1185.44 749.238,1189.43 747.68,1192.54C746.121,1195.66 743.783,1198.37 740.666,1200.68C734.548,1205.07 728.429,1207.26 722.31,1207.26L693.218,1207.26C687.099,1207.26 681.154,1205.07 675.381,1200.68C672.61,1198.37 670.475,1195.46 668.974,1191.94C667.473,1188.42 666.723,1184.35 666.723,1179.73L666.723,1130.38C666.723,1121.03 669.609,1114.1 675.381,1109.6C678.267,1107.52 681.24,1105.87 684.299,1104.66C687.359,1103.45 690.332,1102.84 693.218,1102.84L722.31,1102.84C725.081,1102.84 728.14,1103.39 731.488,1104.49C734.836,1105.58 737.953,1107.06 740.84,1108.9C743.61,1110.87 745.833,1113.58 747.507,1117.04C749.181,1120.51 750.018,1124.6 750.018,1129.34L750.018,1152.71C750.018,1155.37 749.238,1157.74 747.68,1159.82C746.121,1161.89 743.264,1162.93 739.108,1162.93L701.703,1162.93C697.547,1162.93 695.353,1160.22 695.123,1154.79C695.123,1149.37 697.316,1146.65 701.703,1146.65L731.142,1146.65L730.969,1130.55C730.969,1127.66 730.074,1125.04 728.285,1122.67C726.495,1120.3 723.465,1119.12 719.193,1119.12L697.547,1119.12C693.275,1119.12 690.245,1120.3 688.456,1122.67C686.666,1125.04 685.771,1127.66 685.771,1130.55L685.771,1179.56Z" style="fill:rgb(119,119,119);fill-rule:nonzero;"/>
            <path d="M790.886,1199.99C790.886,1202.76 789.905,1204.84 787.942,1206.23C785.979,1207.61 783.844,1208.3 781.535,1208.3C775.185,1208.3 772.01,1205.53 772.01,1199.99L772.01,1077.04C772.01,1071.5 775.185,1068.73 781.535,1068.73C787.884,1068.73 791.059,1071.5 791.059,1077.04L791.059,1103.02L827.598,1103.02C833.486,1103.02 839.604,1105.21 845.954,1109.6C852.188,1113.98 855.305,1120.91 855.305,1130.38L855.305,1181.98C855.305,1191.56 852.477,1198.14 846.82,1201.72C841.163,1205.42 834.698,1207.26 827.425,1207.26L806.991,1207.26C802.835,1207.26 800.641,1204.55 800.41,1199.12C800.41,1193.7 802.604,1190.99 806.991,1190.99L824.308,1190.99C828.579,1190.99 831.639,1190.21 833.486,1188.65C835.333,1187.09 836.256,1184.81 836.256,1181.81L836.256,1131.93C836.256,1128.93 835.333,1126.05 833.486,1123.28L833.659,1123.45C832.158,1120.68 829.099,1119.29 824.481,1119.29L791.059,1119.29L790.886,1199.99Z" style="fill:rgb(119,119,119);fill-rule:nonzero;"/>
        </g>
        <g transform="matrix(1,0,0,1,-1.57896,-347.364)">
            <text x="454.63px" y="1659.71px" style="font-family:'ArialMT', 'Arial', sans-serif;font-size:41.667px;fill:rgb(119,119,119);">„Ceea ce avem de învățat să facem, învățăm făcând.”</text>
            <g transform="matrix(29.1667,0,0,29.1667,1570.65,1659.71)">
            </g>
            <text x="1445.86px" y="1659.71px" style="font-family:'ArialMT', 'Arial', sans-serif;font-size:29.167px;fill:rgb(119,119,119);">(Aristotel)</text>
        </g>
    </g>
</svg>
